<?xml version="1.0" encoding="UTF-8" standalone="no"?>
<!-- Created with Inkscape (http://www.inkscape.org/) -->

<svg
   width="31.060497mm"
   height="21.307713mm"
   viewBox="0 0 31.060497 21.307713"
   version="1.1"
   id="svg1"
   xmlns="http://www.w3.org/2000/svg"
   xmlns:svg="http://www.w3.org/2000/svg">
  <defs
     id="defs1" />
  <g
     id="layer2"
     transform="translate(-37.809318,-32.681515)">
    <g
       id="g31"
       transform="translate(-7.728625,-13.6171)"
       style="fill:#d5d5d5;fill-opacity:1">
      <ellipse
         style="fill:#101010;fill-opacity:1;stroke:#090c0d;stroke-width:0.09362;stroke-dasharray:none"
         id="path30-0"
         cx="61.068195"
         cy="56.952469"
         rx="15.483441"
         ry="10.607046" />
    </g>
  </g>
  <g
     id="layer1"
     transform="translate(-45.537943,-46.298615)">
    <g
       id="layer3"
       transform="translate(7.728625,13.6171)">
      <ellipse
         style="fill:#ffffff;fill-opacity:1;stroke:#090c0d;stroke-width:0.0855293;stroke-dasharray:none"
         id="path30"
         cx="61.069935"
         cy="56.9986"
         rx="14.383398"
         ry="9.5300035"
         transform="translate(-7.728625,-13.6171)" />
    </g>
    <rect
       style="fill:#1a1a1a;fill-opacity:1;stroke:#090c0d;stroke-width:0.264583"
       id="rect3"
       width="2.1161709"
       height="7.820632"
       x="59.804836"
       y="50.880112" />
    <rect
       style="fill:#f2f2f2;fill-opacity:1;stroke:#090c0d;stroke-width:0.301826"
       id="rect3-8"
       width="2.0789278"
       height="10.359597"
       x="62.07634"
       y="48.324486" />
    <rect
       style="fill:#787878;fill-opacity:1;stroke:#090c0d;stroke-width:0.244997"
       id="rect3-1"
       width="2.1357572"
       height="6.6441216"
       x="64.143524"
       y="52.251316" />
    <rect
       style="fill:#ffffff;fill-opacity:1;stroke:#090c0d;stroke-width:0.295584"
       id="rect3-1-2"
       width="2.0851698"
       height="9.9058018"
       x="66.338608"
       y="49.024841" />
    <rect
       style="fill:#575757;fill-opacity:1;stroke:#090c0d;stroke-width:0.231985"
       id="rect3-1-2-2"
       width="2.1487684"
       height="5.9210734"
       x="68.391441"
       y="52.948864" />
    <rect
       style="fill:#d5d5d5;fill-opacity:1;stroke:#090c0d;stroke-width:0.252739"
       id="rect3-1-2-2-6"
       width="2.1280148"
       height="7.0964165"
       x="70.722878"
       y="51.775082" />
    <path
       style="fill:none;stroke:#090c0d;stroke-width:0.340498"
       d="M 47.095255,59.235028 75.01998,59.395063"
       id="path3" />
    <path
       style="fill:none;stroke:#090c0d;stroke-width:0.14428"
       d="m 46.740575,56.293031 2.863307,0.05704"
       id="path4" />
    <path
       style="fill:none;stroke:#090c0d;stroke-width:0.144519"
       d="m 54.738767,56.494147 4.922585,0.03328"
       id="path4-6" />
    <path
       style="fill:none;stroke:#090c0d;stroke-width:0.134588"
       d="m 72.95425,56.639443 2.505375,0.05672"
       id="path4-5" />
    <path
       style="fill:none;stroke:#090c0d;stroke-width:0.295465"
       d="m 50.848556,63.575565 20.648145,0.06468"
       id="path5" />
    <ellipse
       style="fill:#000000;fill-opacity:1;stroke:#090c0d;stroke-width:0.137057"
       id="path6"
       cx="59.160778"
       cy="60.839916"
       rx="0.70781523"
       ry="0.27077988" />
    <path
       style="fill:none;stroke:#090c0d;stroke-width:0.264583"
       d="m 58.447725,62.105019 2.022302,0.408553 2.256042,-0.316543 c 0,0 -1.539526,0.97357 -2.392193,0.920075 -0.712111,-0.04468 -1.886151,-1.012085 -1.886151,-1.012085 z"
       id="path7" />
    <path
       style="fill:#262626;fill-opacity:1;stroke:#090c0d;stroke-width:0;stroke-dasharray:none"
       d="M 58.608735,60.632899 58.056692,59.620817"
       id="path25" />
    <path
       style="fill:#262626;fill-opacity:1;stroke:#090c0d;stroke-width:0.0471235;stroke-dasharray:none"
       d="m 58.312025,60.206149 c 0.305284,0.278574 0.50282,0.572005 0.50282,0.572005"
       id="path28" />
    <path
       style="fill:#262626;fill-opacity:1;stroke:#090c0d;stroke-width:0.0419687;stroke-dasharray:none"
       d="m 58.741361,59.936473 c 0.19446,0.346888 0.320287,0.712277 0.320287,0.712277"
       id="path28-2" />
    <path
       style="fill:#262626;fill-opacity:1;stroke:#090c0d;stroke-width:0.0318591;stroke-dasharray:none"
       d="m 59.417604,59.842219 c -0.09481,0.409978 -0.156148,0.841822 -0.156148,0.841822"
       id="path29" />
    <path
       style="fill:#262626;fill-opacity:1;stroke:#090c0d;stroke-width:0.0422343;stroke-dasharray:none"
       d="m 59.889641,60.046656 c -0.225366,0.303105 -0.371168,0.622374 -0.371168,0.622374"
       id="path29-2" />
    <ellipse
       style="fill:#000000;fill-opacity:1;stroke:#090c0d;stroke-width:0.137057"
       id="path6-1"
       cx="62.119415"
       cy="60.909153"
       rx="0.70781523"
       ry="0.27077988" />
    <path
       style="fill:#262626;fill-opacity:1;stroke:#090c0d;stroke-width:0.0471235;stroke-dasharray:none"
       d="m 61.27066,60.275387 c 0.305284,0.278574 0.50282,0.572005 0.50282,0.572005"
       id="path28-9" />
    <path
       style="fill:#262626;fill-opacity:1;stroke:#090c0d;stroke-width:0.0419687;stroke-dasharray:none"
       d="m 61.699996,60.005711 c 0.19446,0.346888 0.320287,0.712277 0.320287,0.712277"
       id="path28-2-8" />
    <path
       style="fill:#262626;fill-opacity:1;stroke:#090c0d;stroke-width:0.0318591;stroke-dasharray:none"
       d="m 62.376239,59.911457 c -0.09481,0.409978 -0.156148,0.841822 -0.156148,0.841822"
       id="path29-6" />
    <g
       id="g36"
       transform="matrix(0.539183,0,0,0.56986919,41.648969,34.39518)">
      <path
         style="fill:none;fill-rule:evenodd;stroke:#000000;stroke-width:0.264583"
         id="path31"
         d="m 16.191617,37.576008 c 0.134687,-0.0464 0.266868,0.06201 0.29623,0.190463 0.04366,0.191 -0.107338,0.366985 -0.29107,0.398616 -0.246664,0.04246 -0.467834,-0.152688 -0.501003,-0.391679 -0.04193,-0.302131 0.198031,-0.569038 0.492287,-0.603388 0.357519,-0.04174 0.670445,0.243365 0.705775,0.592895 0.04173,0.41287 -0.288696,0.771976 -0.693503,0.80816 -0.4682,0.04185 -0.873591,-0.334022 -0.910547,-0.794111 -0.04205,-0.523517 0.379347,-0.975263 0.894719,-1.012932 0.578828,-0.04231 1.076978,0.42467 1.115319,0.995327 0.04261,0.634133 -0.469993,1.178723 -1.095936,1.217705 -0.689434,0.04293 -1.280493,-0.515314 -1.32009,-1.196544 -0.04329,-0.744733 0.560635,-1.382282 1.297151,-1.422477 0.800031,-0.04366 1.484087,0.605956 1.524863,1.39776 0.04405,0.855327 -0.651276,1.585903 -1.498368,1.627249 -0.910621,0.04445 -1.687729,-0.696596 -1.729635,-1.598976 -0.04486,-0.965915 0.741916,-1.789564 1.699584,-1.832021 1.021209,-0.04527 1.891406,0.787236 1.934408,1.800192 0.0457,1.076501 -0.832556,1.993254 -1.900801,2.036794 -1.131792,0.04613 -2.095107,-0.877875 -2.139179,-2.001409 -0.04656,-1.187084 0.923194,-2.196965 2.102017,-2.241566 1.242375,-0.04701 2.298826,0.968514 2.343951,2.202625 0.04745,1.297667 -1.013833,2.400691 -2.303233,2.446338 -1.352958,0.0479 -2.502559,-1.059153 -2.548724,-2.403841 -0.04835,-1.408249 1.104473,-2.604429 2.50445,-2.65111 1.463538,-0.0488 2.706302,1.149792 2.753496,2.605057 0.04926,1.51883 -1.195111,2.808177 -2.705666,2.855882 -1.574119,0.04971 -2.910053,-1.24043 -2.958268,-2.806273 -0.05017,-1.62941 1.28575,-3.011932 2.906882,-3.060654 1.684699,-0.05063 3.113812,1.331068 3.16304,3.007489 0.02474,0.842349 -0.298914,1.674152 -0.882274,2.281652"
         transform="translate(1.3637562,0.13113041)" />
      <path
         style="fill:none;fill-opacity:1;stroke:#090c0d;stroke-width:0.1;stroke-dasharray:none"
         d="m 14.686606,40.440617 c 0,0 3.693636,-1.117013 6.241807,-0.603199 1.564664,0.315499 -0.308322,-3.704996 0.944139,-4.694468 0.39124,-0.309088 1.180241,-0.334334 1.494887,0.05245 1.337756,1.644457 1.18864,6.610134 -0.917914,6.372939 -4.397789,-0.495184 -11.513249,0.314712 -11.513249,0.314712 z"
         id="path32" />
      <path
         style="fill:none;fill-opacity:1;stroke:#090c0d;stroke-width:0.1;stroke-dasharray:none"
         d="M 21.793874,35.116722 20.771056,33.464481"
         id="path33" />
      <path
         style="fill:none;fill-opacity:1;stroke:#090c0d;stroke-width:0.1;stroke-dasharray:none"
         d="m 23.026499,34.985592 0.550748,-1.442434"
         id="path34" />
      <ellipse
         style="fill:#101010;fill-opacity:1;stroke:#090c0d;stroke-width:0.1;stroke-dasharray:none"
         id="path35"
         cx="20.771057"
         cy="33.385803"
         rx="0.31471297"
         ry="0.34093904" />
      <ellipse
         style="fill:#101010;fill-opacity:1;stroke:#090c0d;stroke-width:0.1;stroke-dasharray:none"
         id="path35-3"
         cx="23.583303"
         cy="33.358952"
         rx="0.31471297"
         ry="0.34093904" />
      <path
         style="fill:none;fill-opacity:1;stroke:#090c0d;stroke-width:0.1;stroke-dasharray:none"
         d="m 21.925004,36.428026 1.599791,-0.02622 c 0,0 -0.279743,1.049077 -0.708104,1.075269 -0.458082,0.02801 -0.891687,-1.049049 -0.891687,-1.049049 z"
         id="path36" />
    </g>
    <path
       style="fill:#262626;fill-opacity:1;stroke:#090c0d;stroke-width:0.0422343;stroke-dasharray:none"
       d="m 62.848276,60.115894 c -0.225366,0.303105 -0.371168,0.622374 -0.371168,0.622374"
       id="path29-2-5" />
    <path
       style="fill:none;fill-opacity:1;stroke:#090c0d;stroke-width:0.103935;stroke-dasharray:none"
       d="M 52.798146,56.438859 H 53.29747"
       id="path37" />
  </g>
</svg>
